<mxfile host="app.diagrams.net" modified="2023-07-12T18:08:15.163Z" agent="Mozilla/5.0 (Macintosh; Intel Mac OS X 10_15_7) AppleWebKit/537.36 (KHTML, like Gecko) Chrome/114.0.0.0 Safari/537.36" etag="PDlghqRyUhyKqdCIDYxW" version="21.6.1" type="google">
  <diagram id="TlIMyadoGyhgxCnVKPuI" name="Page-1">
    <mxGraphModel dx="1194" dy="766" grid="1" gridSize="10" guides="1" tooltips="1" connect="1" arrows="1" fold="1" page="1" pageScale="1" pageWidth="827" pageHeight="1169" math="0" shadow="0">
      <root>
        <mxCell id="0" />
        <mxCell id="1" parent="0" />
        <mxCell id="rbTAMzoJ4i2sfLLXcZBu-10" style="edgeStyle=orthogonalEdgeStyle;rounded=0;orthogonalLoop=1;jettySize=auto;html=1;entryX=0.617;entryY=0;entryDx=0;entryDy=0;entryPerimeter=0;" edge="1" parent="1" source="Pn8fTQrSeP5vRvdxLiqo-2" target="rbTAMzoJ4i2sfLLXcZBu-7">
          <mxGeometry relative="1" as="geometry" />
        </mxCell>
        <mxCell id="rbTAMzoJ4i2sfLLXcZBu-11" style="edgeStyle=orthogonalEdgeStyle;rounded=0;orthogonalLoop=1;jettySize=auto;html=1;entryX=0.583;entryY=0.033;entryDx=0;entryDy=0;entryPerimeter=0;" edge="1" parent="1" source="Pn8fTQrSeP5vRvdxLiqo-2" target="rbTAMzoJ4i2sfLLXcZBu-8">
          <mxGeometry relative="1" as="geometry" />
        </mxCell>
        <mxCell id="Pn8fTQrSeP5vRvdxLiqo-2" value="Start" style="rounded=1;whiteSpace=wrap;html=1;" parent="1" vertex="1">
          <mxGeometry x="137" y="20" width="120" height="40" as="geometry" />
        </mxCell>
        <mxCell id="rbTAMzoJ4i2sfLLXcZBu-1" value="# ðŸš¨ Don&#39;t change the code below ðŸ‘‡&#xa;a = input(&quot;a: &quot;)&#xa;b = input(&quot;b: &quot;)&#xa;# ðŸš¨ Don&#39;t change the code above ðŸ‘†&#xa;&#xa;####################################&#xa;#Write your code below this line ðŸ‘‡&#xa;&#xa;&#xa;&#xa;&#xa;&#xa;#Write your code above this line ðŸ‘†&#xa;####################################&#xa;&#xa;# ðŸš¨ Don&#39;t change the code below ðŸ‘‡&#xa;print(&quot;a: &quot; + a)&#xa;print(&quot;b: &quot; + b)" style="text;whiteSpace=wrap;html=1;" vertex="1" parent="1">
          <mxGeometry x="460" y="30" width="270" height="280" as="geometry" />
        </mxCell>
        <mxCell id="rbTAMzoJ4i2sfLLXcZBu-4" value="a = 3&lt;br&gt;b = 4&lt;br&gt;c =&amp;nbsp; a&lt;br&gt;" style="text;html=1;align=center;verticalAlign=middle;resizable=0;points=[];autosize=1;strokeColor=none;fillColor=none;" vertex="1" parent="1">
          <mxGeometry x="460" y="400" width="50" height="60" as="geometry" />
        </mxCell>
        <mxCell id="rbTAMzoJ4i2sfLLXcZBu-12" style="edgeStyle=orthogonalEdgeStyle;rounded=0;orthogonalLoop=1;jettySize=auto;html=1;exitX=0.5;exitY=1;exitDx=0;exitDy=0;" edge="1" parent="1" source="rbTAMzoJ4i2sfLLXcZBu-7" target="rbTAMzoJ4i2sfLLXcZBu-9">
          <mxGeometry relative="1" as="geometry" />
        </mxCell>
        <mxCell id="rbTAMzoJ4i2sfLLXcZBu-7" value="Input a" style="shape=parallelogram;perimeter=parallelogramPerimeter;whiteSpace=wrap;html=1;fixedSize=1;fillColor=#ffe6cc;strokeColor=#d79b00;" vertex="1" parent="1">
          <mxGeometry x="17" y="120" width="120" height="60" as="geometry" />
        </mxCell>
        <mxCell id="rbTAMzoJ4i2sfLLXcZBu-14" style="edgeStyle=orthogonalEdgeStyle;rounded=0;orthogonalLoop=1;jettySize=auto;html=1;entryX=0.5;entryY=0;entryDx=0;entryDy=0;" edge="1" parent="1" source="rbTAMzoJ4i2sfLLXcZBu-8" target="rbTAMzoJ4i2sfLLXcZBu-9">
          <mxGeometry relative="1" as="geometry">
            <Array as="points">
              <mxPoint x="317" y="260" />
              <mxPoint x="197" y="260" />
            </Array>
          </mxGeometry>
        </mxCell>
        <mxCell id="rbTAMzoJ4i2sfLLXcZBu-8" value="Input b" style="shape=parallelogram;perimeter=parallelogramPerimeter;whiteSpace=wrap;html=1;fixedSize=1;fillColor=#ffe6cc;strokeColor=#d79b00;" vertex="1" parent="1">
          <mxGeometry x="257" y="120" width="120" height="60" as="geometry" />
        </mxCell>
        <mxCell id="rbTAMzoJ4i2sfLLXcZBu-16" style="edgeStyle=orthogonalEdgeStyle;rounded=0;orthogonalLoop=1;jettySize=auto;html=1;" edge="1" parent="1" source="rbTAMzoJ4i2sfLLXcZBu-9" target="rbTAMzoJ4i2sfLLXcZBu-15">
          <mxGeometry relative="1" as="geometry" />
        </mxCell>
        <mxCell id="rbTAMzoJ4i2sfLLXcZBu-9" value="Swap var//&lt;br&gt;a = b&lt;br&gt;b = a&lt;br&gt;a = c" style="whiteSpace=wrap;html=1;aspect=fixed;fillColor=#1ba1e2;fontColor=#ffffff;strokeColor=#006EAF;" vertex="1" parent="1">
          <mxGeometry x="157" y="340" width="80" height="80" as="geometry" />
        </mxCell>
        <mxCell id="rbTAMzoJ4i2sfLLXcZBu-17" style="edgeStyle=orthogonalEdgeStyle;rounded=0;orthogonalLoop=1;jettySize=auto;html=1;exitX=0.5;exitY=1;exitDx=0;exitDy=0;" edge="1" parent="1" source="rbTAMzoJ4i2sfLLXcZBu-15">
          <mxGeometry relative="1" as="geometry">
            <mxPoint x="197" y="630" as="targetPoint" />
          </mxGeometry>
        </mxCell>
        <mxCell id="rbTAMzoJ4i2sfLLXcZBu-15" value="Output&lt;br&gt;b = a&amp;nbsp;&lt;br&gt;a = b" style="shape=parallelogram;perimeter=parallelogramPerimeter;whiteSpace=wrap;html=1;fixedSize=1;fillColor=#d5e8d4;strokeColor=#82b366;" vertex="1" parent="1">
          <mxGeometry x="137" y="490" width="120" height="60" as="geometry" />
        </mxCell>
        <mxCell id="rbTAMzoJ4i2sfLLXcZBu-18" value="Stop" style="rounded=1;whiteSpace=wrap;html=1;fillColor=#f8cecc;strokeColor=#b85450;" vertex="1" parent="1">
          <mxGeometry x="137" y="630" width="123" height="40" as="geometry" />
        </mxCell>
      </root>
    </mxGraphModel>
  </diagram>
</mxfile>
